<mxfile host="Electron" agent="Mozilla/5.0 (Windows NT 10.0; Win64; x64) AppleWebKit/537.36 (KHTML, like Gecko) draw.io/26.0.4 Chrome/128.0.6613.186 Electron/32.2.5 Safari/537.36" version="26.0.4">
  <diagram name="Page-1" id="DRrk-laR0xk_ajX49zWR">
    <mxGraphModel dx="1183" dy="792" grid="1" gridSize="10" guides="1" tooltips="1" connect="1" arrows="1" fold="1" page="1" pageScale="1" pageWidth="4681" pageHeight="3300" math="0" shadow="0">
      <root>
        <mxCell id="0" />
        <mxCell id="1" parent="0" />
        <mxCell id="mogDR7xDG7bXxDVUj-U0-6" value="" style="edgeStyle=orthogonalEdgeStyle;rounded=0;orthogonalLoop=1;jettySize=auto;html=1;fillColor=#d5e8d4;strokeColor=#82b366;" edge="1" parent="1" source="mogDR7xDG7bXxDVUj-U0-1" target="mogDR7xDG7bXxDVUj-U0-4">
          <mxGeometry relative="1" as="geometry" />
        </mxCell>
        <mxCell id="mogDR7xDG7bXxDVUj-U0-54" style="edgeStyle=orthogonalEdgeStyle;rounded=0;orthogonalLoop=1;jettySize=auto;html=1;exitX=0;exitY=0.25;exitDx=0;exitDy=0;startArrow=classic;startFill=1;endArrow=none;endFill=0;fillColor=#f8cecc;strokeColor=#b85450;" edge="1" parent="1" source="mogDR7xDG7bXxDVUj-U0-1">
          <mxGeometry relative="1" as="geometry">
            <mxPoint x="240" y="240" as="targetPoint" />
          </mxGeometry>
        </mxCell>
        <mxCell id="mogDR7xDG7bXxDVUj-U0-1" value="Cell&lt;div&gt;Monitoring&lt;/div&gt;" style="rounded=0;whiteSpace=wrap;html=1;" vertex="1" parent="1">
          <mxGeometry x="320" y="240" width="80" height="160" as="geometry" />
        </mxCell>
        <mxCell id="mogDR7xDG7bXxDVUj-U0-10" style="edgeStyle=orthogonalEdgeStyle;rounded=0;orthogonalLoop=1;jettySize=auto;html=1;entryX=0;entryY=0.5;entryDx=0;entryDy=0;fillColor=#f8cecc;strokeColor=#b85450;startArrow=classic;startFill=1;" edge="1" parent="1" source="mogDR7xDG7bXxDVUj-U0-2" target="mogDR7xDG7bXxDVUj-U0-8">
          <mxGeometry relative="1" as="geometry" />
        </mxCell>
        <mxCell id="mogDR7xDG7bXxDVUj-U0-2" value="Solid-State Switch&lt;div&gt;(and driver)&lt;/div&gt;" style="rounded=0;whiteSpace=wrap;html=1;" vertex="1" parent="1">
          <mxGeometry x="640" y="120" width="160" height="40" as="geometry" />
        </mxCell>
        <mxCell id="mogDR7xDG7bXxDVUj-U0-7" style="edgeStyle=orthogonalEdgeStyle;rounded=0;orthogonalLoop=1;jettySize=auto;html=1;exitX=0;exitY=0.5;exitDx=0;exitDy=0;entryX=1;entryY=0.75;entryDx=0;entryDy=0;startArrow=classic;startFill=1;fillColor=#dae8fc;strokeColor=#6c8ebf;" edge="1" parent="1" source="mogDR7xDG7bXxDVUj-U0-3" target="mogDR7xDG7bXxDVUj-U0-1">
          <mxGeometry relative="1" as="geometry" />
        </mxCell>
        <mxCell id="mogDR7xDG7bXxDVUj-U0-22" style="edgeStyle=orthogonalEdgeStyle;rounded=0;orthogonalLoop=1;jettySize=auto;html=1;exitX=0.25;exitY=0;exitDx=0;exitDy=0;fillColor=#d5e8d4;strokeColor=#82b366;" edge="1" parent="1" source="mogDR7xDG7bXxDVUj-U0-3">
          <mxGeometry relative="1" as="geometry">
            <mxPoint x="320" y="140" as="targetPoint" />
            <Array as="points">
              <mxPoint x="530" y="200" />
              <mxPoint x="321" y="200" />
              <mxPoint x="321" y="140" />
            </Array>
          </mxGeometry>
        </mxCell>
        <mxCell id="mogDR7xDG7bXxDVUj-U0-23" style="edgeStyle=orthogonalEdgeStyle;rounded=0;orthogonalLoop=1;jettySize=auto;html=1;fillColor=#d5e8d4;strokeColor=#82b366;" edge="1" parent="1" source="mogDR7xDG7bXxDVUj-U0-3">
          <mxGeometry relative="1" as="geometry">
            <mxPoint x="560" y="140" as="targetPoint" />
          </mxGeometry>
        </mxCell>
        <mxCell id="mogDR7xDG7bXxDVUj-U0-24" style="edgeStyle=orthogonalEdgeStyle;rounded=0;orthogonalLoop=1;jettySize=auto;html=1;exitX=0.75;exitY=0;exitDx=0;exitDy=0;fillColor=#d5e8d4;strokeColor=#82b366;" edge="1" parent="1" source="mogDR7xDG7bXxDVUj-U0-3">
          <mxGeometry relative="1" as="geometry">
            <mxPoint x="840" y="140" as="targetPoint" />
            <Array as="points">
              <mxPoint x="590" y="260" />
              <mxPoint x="840" y="260" />
            </Array>
          </mxGeometry>
        </mxCell>
        <mxCell id="mogDR7xDG7bXxDVUj-U0-27" style="edgeStyle=orthogonalEdgeStyle;rounded=0;orthogonalLoop=1;jettySize=auto;html=1;exitX=1;exitY=0.25;exitDx=0;exitDy=0;entryX=0.5;entryY=1;entryDx=0;entryDy=0;fillColor=#ffe6cc;strokeColor=#d79b00;" edge="1" parent="1" source="mogDR7xDG7bXxDVUj-U0-3" target="mogDR7xDG7bXxDVUj-U0-2">
          <mxGeometry relative="1" as="geometry" />
        </mxCell>
        <mxCell id="mogDR7xDG7bXxDVUj-U0-55" style="edgeStyle=orthogonalEdgeStyle;rounded=0;orthogonalLoop=1;jettySize=auto;html=1;exitX=0.75;exitY=1;exitDx=0;exitDy=0;entryX=0;entryY=0.5;entryDx=0;entryDy=0;startArrow=classic;startFill=1;endArrow=none;endFill=0;fillColor=#f8cecc;strokeColor=#b85450;" edge="1" parent="1" source="mogDR7xDG7bXxDVUj-U0-3" target="mogDR7xDG7bXxDVUj-U0-32">
          <mxGeometry relative="1" as="geometry">
            <Array as="points">
              <mxPoint x="590" y="460" />
              <mxPoint x="1010" y="460" />
              <mxPoint x="1010" y="360" />
            </Array>
          </mxGeometry>
        </mxCell>
        <mxCell id="mogDR7xDG7bXxDVUj-U0-3" value="Pack&lt;div&gt;Monitoring&lt;/div&gt;" style="rounded=0;whiteSpace=wrap;html=1;" vertex="1" parent="1">
          <mxGeometry x="500" y="320" width="120" height="80" as="geometry" />
        </mxCell>
        <mxCell id="mogDR7xDG7bXxDVUj-U0-19" style="edgeStyle=orthogonalEdgeStyle;rounded=0;orthogonalLoop=1;jettySize=auto;html=1;entryX=0;entryY=0.8;entryDx=0;entryDy=0;exitX=1;exitY=0.5;exitDx=0;exitDy=0;fillColor=#f8cecc;strokeColor=#b85450;startArrow=classic;startFill=1;" edge="1" parent="1" source="mogDR7xDG7bXxDVUj-U0-4" target="mogDR7xDG7bXxDVUj-U0-16">
          <mxGeometry relative="1" as="geometry" />
        </mxCell>
        <mxCell id="mogDR7xDG7bXxDVUj-U0-4" value="" style="pointerEvents=1;verticalLabelPosition=bottom;shadow=0;dashed=0;align=center;html=1;verticalAlign=top;shape=mxgraph.electrical.miscellaneous.batteryStack;direction=north;" vertex="1" parent="1">
          <mxGeometry x="210" y="270" width="60" height="100" as="geometry" />
        </mxCell>
        <mxCell id="mogDR7xDG7bXxDVUj-U0-8" value="Pos Bus Conn" style="rounded=0;whiteSpace=wrap;html=1;" vertex="1" parent="1">
          <mxGeometry x="1280" y="120" width="120" height="40" as="geometry" />
        </mxCell>
        <mxCell id="mogDR7xDG7bXxDVUj-U0-9" value="Neg Bus Conn" style="rounded=0;whiteSpace=wrap;html=1;" vertex="1" parent="1">
          <mxGeometry x="1280" y="460" width="120" height="40" as="geometry" />
        </mxCell>
        <mxCell id="mogDR7xDG7bXxDVUj-U0-13" style="edgeStyle=orthogonalEdgeStyle;rounded=0;orthogonalLoop=1;jettySize=auto;html=1;exitX=1;exitY=0.5;exitDx=0;exitDy=0;exitPerimeter=0;entryX=0;entryY=0.5;entryDx=0;entryDy=0;startArrow=classic;startFill=1;fillColor=#f8cecc;strokeColor=#b85450;" edge="1" parent="1" source="mogDR7xDG7bXxDVUj-U0-11" target="mogDR7xDG7bXxDVUj-U0-9">
          <mxGeometry relative="1" as="geometry" />
        </mxCell>
        <mxCell id="mogDR7xDG7bXxDVUj-U0-15" style="edgeStyle=orthogonalEdgeStyle;rounded=0;orthogonalLoop=1;jettySize=auto;html=1;entryX=0.5;entryY=1;entryDx=0;entryDy=0;startArrow=classic;startFill=1;fillColor=#d5e8d4;strokeColor=#82b366;endArrow=none;endFill=0;" edge="1" parent="1" source="mogDR7xDG7bXxDVUj-U0-11" target="mogDR7xDG7bXxDVUj-U0-3">
          <mxGeometry relative="1" as="geometry" />
        </mxCell>
        <mxCell id="mogDR7xDG7bXxDVUj-U0-11" value="" style="pointerEvents=1;verticalLabelPosition=bottom;shadow=0;dashed=0;align=center;html=1;verticalAlign=top;shape=mxgraph.electrical.resistors.resistor_2;" vertex="1" parent="1">
          <mxGeometry x="510" y="470" width="100" height="20" as="geometry" />
        </mxCell>
        <mxCell id="mogDR7xDG7bXxDVUj-U0-12" style="edgeStyle=orthogonalEdgeStyle;rounded=0;orthogonalLoop=1;jettySize=auto;html=1;exitX=0;exitY=0.5;exitDx=0;exitDy=0;entryX=0;entryY=0.5;entryDx=0;entryDy=0;entryPerimeter=0;fillColor=#f8cecc;strokeColor=#b85450;startArrow=classic;startFill=1;" edge="1" parent="1" source="mogDR7xDG7bXxDVUj-U0-4" target="mogDR7xDG7bXxDVUj-U0-11">
          <mxGeometry relative="1" as="geometry" />
        </mxCell>
        <mxCell id="mogDR7xDG7bXxDVUj-U0-17" style="edgeStyle=orthogonalEdgeStyle;rounded=0;orthogonalLoop=1;jettySize=auto;html=1;entryX=0;entryY=0.5;entryDx=0;entryDy=0;exitX=1;exitY=0.8;exitDx=0;exitDy=0;fillColor=#f8cecc;strokeColor=#b85450;startArrow=classic;startFill=1;" edge="1" parent="1" source="mogDR7xDG7bXxDVUj-U0-16" target="mogDR7xDG7bXxDVUj-U0-2">
          <mxGeometry relative="1" as="geometry" />
        </mxCell>
        <mxCell id="mogDR7xDG7bXxDVUj-U0-16" value="" style="html=1;shape=mxgraph.electrical.electro-mechanical.pushbutton;aspect=fixed;elSwitchState=off;" vertex="1" parent="1">
          <mxGeometry x="400" y="123.34" width="80" height="21.33" as="geometry" />
        </mxCell>
        <mxCell id="mogDR7xDG7bXxDVUj-U0-20" value="E-Stop" style="text;html=1;align=center;verticalAlign=middle;whiteSpace=wrap;rounded=0;" vertex="1" parent="1">
          <mxGeometry x="410" y="144.67000000000002" width="60" height="30" as="geometry" />
        </mxCell>
        <mxCell id="mogDR7xDG7bXxDVUj-U0-26" style="edgeStyle=orthogonalEdgeStyle;rounded=0;orthogonalLoop=1;jettySize=auto;html=1;fillColor=#dae8fc;strokeColor=#6c8ebf;startArrow=classic;startFill=1;" edge="1" parent="1" source="mogDR7xDG7bXxDVUj-U0-25" target="mogDR7xDG7bXxDVUj-U0-3">
          <mxGeometry relative="1" as="geometry" />
        </mxCell>
        <mxCell id="mogDR7xDG7bXxDVUj-U0-28" style="edgeStyle=orthogonalEdgeStyle;rounded=0;orthogonalLoop=1;jettySize=auto;html=1;exitX=0;exitY=0.25;exitDx=0;exitDy=0;entryX=0.75;entryY=1;entryDx=0;entryDy=0;fillColor=#ffe6cc;strokeColor=#d79b00;" edge="1" parent="1" source="mogDR7xDG7bXxDVUj-U0-25" target="mogDR7xDG7bXxDVUj-U0-2">
          <mxGeometry relative="1" as="geometry" />
        </mxCell>
        <mxCell id="mogDR7xDG7bXxDVUj-U0-41" style="edgeStyle=orthogonalEdgeStyle;rounded=0;orthogonalLoop=1;jettySize=auto;html=1;exitX=0.25;exitY=1;exitDx=0;exitDy=0;entryX=0;entryY=0.5;entryDx=0;entryDy=0;fillColor=#fff2cc;strokeColor=#d6b656;" edge="1" parent="1" source="mogDR7xDG7bXxDVUj-U0-25" target="mogDR7xDG7bXxDVUj-U0-31">
          <mxGeometry relative="1" as="geometry" />
        </mxCell>
        <mxCell id="mogDR7xDG7bXxDVUj-U0-48" style="edgeStyle=orthogonalEdgeStyle;rounded=0;orthogonalLoop=1;jettySize=auto;html=1;exitX=0.75;exitY=1;exitDx=0;exitDy=0;entryX=0;entryY=0.5;entryDx=0;entryDy=0;startArrow=classic;startFill=1;fillColor=#fff2cc;strokeColor=#d6b656;" edge="1" parent="1" source="mogDR7xDG7bXxDVUj-U0-25" target="mogDR7xDG7bXxDVUj-U0-46">
          <mxGeometry relative="1" as="geometry">
            <Array as="points">
              <mxPoint x="930" y="420" />
              <mxPoint x="1240" y="420" />
              <mxPoint x="1240" y="300" />
            </Array>
          </mxGeometry>
        </mxCell>
        <mxCell id="mogDR7xDG7bXxDVUj-U0-49" style="edgeStyle=orthogonalEdgeStyle;rounded=0;orthogonalLoop=1;jettySize=auto;html=1;exitX=0.5;exitY=1;exitDx=0;exitDy=0;entryX=0;entryY=0.5;entryDx=0;entryDy=0;startArrow=classic;startFill=1;fillColor=#fff2cc;strokeColor=#d6b656;" edge="1" parent="1" source="mogDR7xDG7bXxDVUj-U0-25" target="mogDR7xDG7bXxDVUj-U0-47">
          <mxGeometry relative="1" as="geometry">
            <Array as="points">
              <mxPoint x="900" y="440" />
              <mxPoint x="1260" y="440" />
              <mxPoint x="1260" y="380" />
            </Array>
          </mxGeometry>
        </mxCell>
        <mxCell id="mogDR7xDG7bXxDVUj-U0-51" style="edgeStyle=orthogonalEdgeStyle;rounded=0;orthogonalLoop=1;jettySize=auto;html=1;entryX=0.5;entryY=1;entryDx=0;entryDy=0;fillColor=#dae8fc;strokeColor=#6c8ebf;startArrow=classic;startFill=1;exitX=0.25;exitY=0;exitDx=0;exitDy=0;" edge="1" parent="1" source="mogDR7xDG7bXxDVUj-U0-25" target="mogDR7xDG7bXxDVUj-U0-44">
          <mxGeometry relative="1" as="geometry" />
        </mxCell>
        <mxCell id="mogDR7xDG7bXxDVUj-U0-53" style="edgeStyle=orthogonalEdgeStyle;rounded=0;orthogonalLoop=1;jettySize=auto;html=1;entryX=0.5;entryY=1;entryDx=0;entryDy=0;fillColor=#fff2cc;strokeColor=#d6b656;startArrow=classic;startFill=1;exitX=0.5;exitY=0;exitDx=0;exitDy=0;" edge="1" parent="1" source="mogDR7xDG7bXxDVUj-U0-25" target="mogDR7xDG7bXxDVUj-U0-52">
          <mxGeometry relative="1" as="geometry">
            <mxPoint x="930" y="240" as="sourcePoint" />
            <Array as="points">
              <mxPoint x="900" y="100" />
              <mxPoint x="1060" y="100" />
            </Array>
          </mxGeometry>
        </mxCell>
        <mxCell id="mogDR7xDG7bXxDVUj-U0-56" style="edgeStyle=orthogonalEdgeStyle;rounded=0;orthogonalLoop=1;jettySize=auto;html=1;exitX=0.75;exitY=0;exitDx=0;exitDy=0;entryX=0;entryY=0.75;entryDx=0;entryDy=0;fillColor=#fff2cc;strokeColor=#d6b656;" edge="1" parent="1" source="mogDR7xDG7bXxDVUj-U0-25" target="mogDR7xDG7bXxDVUj-U0-29">
          <mxGeometry relative="1" as="geometry" />
        </mxCell>
        <mxCell id="mogDR7xDG7bXxDVUj-U0-25" value="Microcontroller" style="rounded=0;whiteSpace=wrap;html=1;" vertex="1" parent="1">
          <mxGeometry x="840" y="320" width="120" height="80" as="geometry" />
        </mxCell>
        <mxCell id="mogDR7xDG7bXxDVUj-U0-33" style="edgeStyle=orthogonalEdgeStyle;rounded=0;orthogonalLoop=1;jettySize=auto;html=1;entryX=1;entryY=0.5;entryDx=0;entryDy=0;startArrow=classic;startFill=1;endArrow=none;endFill=0;fillColor=#f8cecc;strokeColor=#b85450;" edge="1" parent="1" source="mogDR7xDG7bXxDVUj-U0-29" target="mogDR7xDG7bXxDVUj-U0-2">
          <mxGeometry relative="1" as="geometry" />
        </mxCell>
        <mxCell id="mogDR7xDG7bXxDVUj-U0-29" value="Step&lt;div&gt;Down&lt;/div&gt;" style="rounded=0;whiteSpace=wrap;html=1;" vertex="1" parent="1">
          <mxGeometry x="1160" y="160" width="80" height="80" as="geometry" />
        </mxCell>
        <mxCell id="mogDR7xDG7bXxDVUj-U0-37" style="edgeStyle=orthogonalEdgeStyle;rounded=0;orthogonalLoop=1;jettySize=auto;html=1;startArrow=classic;startFill=1;endArrow=none;endFill=0;fillColor=#f8cecc;strokeColor=#b85450;" edge="1" parent="1" source="mogDR7xDG7bXxDVUj-U0-30">
          <mxGeometry relative="1" as="geometry">
            <mxPoint x="1200" y="520" as="targetPoint" />
          </mxGeometry>
        </mxCell>
        <mxCell id="mogDR7xDG7bXxDVUj-U0-38" style="edgeStyle=orthogonalEdgeStyle;rounded=0;orthogonalLoop=1;jettySize=auto;html=1;entryX=1;entryY=0.8;entryDx=0;entryDy=0;fillColor=#f8cecc;strokeColor=#b85450;" edge="1" parent="1" source="mogDR7xDG7bXxDVUj-U0-30" target="mogDR7xDG7bXxDVUj-U0-16">
          <mxGeometry relative="1" as="geometry">
            <Array as="points">
              <mxPoint x="610" y="280" />
              <mxPoint x="610" y="140" />
            </Array>
          </mxGeometry>
        </mxCell>
        <mxCell id="mogDR7xDG7bXxDVUj-U0-57" style="edgeStyle=orthogonalEdgeStyle;rounded=0;orthogonalLoop=1;jettySize=auto;html=1;exitX=0;exitY=0.25;exitDx=0;exitDy=0;entryX=0.75;entryY=0;entryDx=0;entryDy=0;startArrow=classic;startFill=1;endArrow=none;endFill=0;fillColor=#fff2cc;strokeColor=#d6b656;" edge="1" parent="1" source="mogDR7xDG7bXxDVUj-U0-30" target="mogDR7xDG7bXxDVUj-U0-25">
          <mxGeometry relative="1" as="geometry" />
        </mxCell>
        <mxCell id="mogDR7xDG7bXxDVUj-U0-30" value="Step&lt;div&gt;Up&lt;/div&gt;" style="rounded=0;whiteSpace=wrap;html=1;" vertex="1" parent="1">
          <mxGeometry x="1040" y="260" width="80" height="40" as="geometry" />
        </mxCell>
        <mxCell id="mogDR7xDG7bXxDVUj-U0-34" style="edgeStyle=orthogonalEdgeStyle;rounded=0;orthogonalLoop=1;jettySize=auto;html=1;entryX=0.5;entryY=1;entryDx=0;entryDy=0;fillColor=#f8cecc;strokeColor=#b85450;startArrow=classic;startFill=1;endArrow=none;endFill=0;" edge="1" parent="1" source="mogDR7xDG7bXxDVUj-U0-31" target="mogDR7xDG7bXxDVUj-U0-29">
          <mxGeometry relative="1" as="geometry" />
        </mxCell>
        <mxCell id="mogDR7xDG7bXxDVUj-U0-42" style="edgeStyle=orthogonalEdgeStyle;rounded=0;orthogonalLoop=1;jettySize=auto;html=1;exitX=0.5;exitY=1;exitDx=0;exitDy=0;fillColor=#f8cecc;strokeColor=#b85450;startArrow=classic;startFill=1;entryX=0.5;entryY=0;entryDx=0;entryDy=0;" edge="1" parent="1" source="mogDR7xDG7bXxDVUj-U0-31" target="mogDR7xDG7bXxDVUj-U0-50">
          <mxGeometry relative="1" as="geometry">
            <mxPoint x="1200.3333333333335" y="680" as="targetPoint" />
          </mxGeometry>
        </mxCell>
        <mxCell id="mogDR7xDG7bXxDVUj-U0-31" value="USB Port /&lt;div&gt;Protector&lt;/div&gt;" style="rounded=0;whiteSpace=wrap;html=1;" vertex="1" parent="1">
          <mxGeometry x="1160" y="520" width="80" height="80" as="geometry" />
        </mxCell>
        <mxCell id="mogDR7xDG7bXxDVUj-U0-35" style="edgeStyle=orthogonalEdgeStyle;rounded=0;orthogonalLoop=1;jettySize=auto;html=1;entryX=1;entryY=0.5;entryDx=0;entryDy=0;fillColor=#f8cecc;strokeColor=#b85450;" edge="1" parent="1" source="mogDR7xDG7bXxDVUj-U0-32" target="mogDR7xDG7bXxDVUj-U0-25">
          <mxGeometry relative="1" as="geometry" />
        </mxCell>
        <mxCell id="mogDR7xDG7bXxDVUj-U0-36" style="edgeStyle=orthogonalEdgeStyle;rounded=0;orthogonalLoop=1;jettySize=auto;html=1;entryX=0.5;entryY=0;entryDx=0;entryDy=0;fillColor=#f8cecc;strokeColor=#b85450;startArrow=classic;startFill=1;" edge="1" parent="1" source="mogDR7xDG7bXxDVUj-U0-32" target="mogDR7xDG7bXxDVUj-U0-31">
          <mxGeometry relative="1" as="geometry" />
        </mxCell>
        <mxCell id="mogDR7xDG7bXxDVUj-U0-32" value="Power Backup" style="rounded=0;whiteSpace=wrap;html=1;" vertex="1" parent="1">
          <mxGeometry x="1040" y="320" width="80" height="80" as="geometry" />
        </mxCell>
        <mxCell id="mogDR7xDG7bXxDVUj-U0-44" value="External&lt;br&gt;User Interface" style="rounded=0;whiteSpace=wrap;html=1;dashed=1;" vertex="1" parent="1">
          <mxGeometry x="810" y="40" width="120" height="40" as="geometry" />
        </mxCell>
        <mxCell id="mogDR7xDG7bXxDVUj-U0-46" value="Inverter&lt;div&gt;Control&lt;/div&gt;" style="rounded=0;whiteSpace=wrap;html=1;dashed=1;" vertex="1" parent="1">
          <mxGeometry x="1400" y="280" width="80" height="40" as="geometry" />
        </mxCell>
        <mxCell id="mogDR7xDG7bXxDVUj-U0-47" value="Charger&lt;div&gt;Control&lt;/div&gt;" style="rounded=0;whiteSpace=wrap;html=1;dashed=1;" vertex="1" parent="1">
          <mxGeometry x="1400" y="360" width="80" height="40" as="geometry" />
        </mxCell>
        <mxCell id="mogDR7xDG7bXxDVUj-U0-50" value="External&lt;div&gt;Device&lt;/div&gt;" style="rounded=0;whiteSpace=wrap;html=1;dashed=1;" vertex="1" parent="1">
          <mxGeometry x="1160" y="680" width="80" height="40" as="geometry" />
        </mxCell>
        <mxCell id="mogDR7xDG7bXxDVUj-U0-52" value="Built-In&lt;div&gt;User Interface&lt;/div&gt;" style="rounded=0;whiteSpace=wrap;html=1;" vertex="1" parent="1">
          <mxGeometry x="1000" y="40" width="120" height="40" as="geometry" />
        </mxCell>
      </root>
    </mxGraphModel>
  </diagram>
</mxfile>
